<svg xmlns="http://www.w3.org/2000/svg" viewBox="0 0 32 32">
  <rect width="32" height="32" rx="6" fill="#111013"/>
  <path fill="#e8e4da" d="M16.14 26.00Q13.91 26.00 12.21 25.20Q10.51 24.41 9.54 22.92Q8.58 21.44 8.58 19.35V18.58H12.15V19.35Q12.15 21.08 13.23 21.95Q14.30 22.81 16.14 22.81Q18.01 22.81 18.93 22.07Q19.85 21.33 19.85 20.18Q19.85 19.38 19.39 18.88Q18.94 18.39 18.07 18.07Q17.21 17.76 15.97 17.48L15.34 17.35Q13.36 16.91 11.95 16.23Q10.53 15.56 9.78 14.46Q9.02 13.36 9.02 11.60Q9.02 9.85 9.86 8.60Q10.70 7.35 12.22 6.67Q13.75 6.00 15.81 6.00Q17.87 6.00 19.48 6.70Q21.08 7.40 22.00 8.79Q22.92 10.18 22.92 12.26V13.09H19.35V12.26Q19.35 11.16 18.93 10.49Q18.50 9.82 17.70 9.50Q16.91 9.19 15.81 9.19Q14.16 9.19 13.38 9.80Q12.59 10.42 12.59 11.49Q12.59 12.21 12.96 12.70Q13.34 13.20 14.08 13.53Q14.82 13.86 15.97 14.10L16.60 14.24Q18.66 14.68 20.19 15.37Q21.71 16.05 22.57 17.18Q23.42 18.31 23.42 20.07Q23.42 21.82 22.52 23.16Q21.63 24.49 20.00 25.24Q18.36 26.00 16.14 26.00Z"/>
</svg>
